#!OML:ASF H:\Dans Jumps\Project 1\Capture day 1\Session 1\subject.ASF
:FULLY-SPECIFIED
:DEGREES
394
root -0.158753 20.2102 -3.38245 3.67622 3.05178 -2.32458
lowerback 4.23983 -0.761726 -0.643872
upperback 3.16074 -1.03946 2.07918
thorax 0.920044 -0.55072 2.53093
lowerneck -8.63103 0.205614 -1.14498
upperneck 30.7126 0.209812 1.0876
head 11.3711 0.0966212 0.625992
rclavicle 1.62506e-014 1.07344e-014
rhumerus -15.5996 -10.182 -84.9672
rradius 27.6585
rwrist 31.4339
rhand -22.8596 -22.7845
rfingers 7.12502
rthumb 3.5787 -52.7342
lclavicle 1.62506e-014 1.07344e-014
lhumerus -2.04983 -13.614 92.6015
lradius 28.841
lwrist 20.453
lhand -27.2801 -11.2766
lfingers 7.12502
lthumb -0.690646 18.7021
rfemur -26.8364 -5.43695 19.6687
rtibia 22.6568
rfoot 16.7874 -4.85917
rtoes 10.169
lfemur -26.6861 6.3717 -14.8075
ltibia 20.2886
lfoot 19.4452 -2.55801
ltoes -6.43842
395
root -0.159142 19.9967 -3.18491 3.28141 2.95012 -2.37593
lowerback 3.95001 -0.749445 -0.579855
upperback 3.15247 -1.02272 2.04909
thorax 1.07053 -0.54212 2.45887
lowerneck -8.6058 0.197331 -1.13996
upperneck 31.0688 0.177448 1.14527
head 11.5063 0.0884756 0.644904
rclavicle 9.98893e-015 -7.7526e-015
rhumerus -16.453 -10.5831 -84.6664
rradius 27.3059
rwrist 31.6148
rhand -22.8748 -22.8305
rfingers 7.12502
rthumb 3.56396 -52.7805
lclavicle 9.98893e-015 -7.7526e-015
lhumerus -2.55453 -13.2632 92.6773
lradius 28.5911
lwrist 20.3462
lhand -27.126 -11.2043
lfingers 7.12502
lthumb -0.541746 18.7748
rfemur -26.6615 -5.44589 19.6659
rtibia 22.3815
rfoot 16.9735 -4.83647
rtoes 10.012
lfemur -26.1775 6.25208 -14.636
ltibia 19.5699
lfoot 19.5988 -2.40373
ltoes -7.52279
396
root -0.15942 19.7695 -2.98524 2.82603 2.83448 -2.39945
lowerback 3.6721 -0.735605 -0.537631
upperback 3.15204 -1.00473 2.00737
thorax 1.22274 -0.533103 2.38741
lowerneck -8.60235 0.191055 -1.12593
upperneck 31.4379 0.150262 1.18828
head 11.6524 0.0820566 0.657769
rclavicle 8.89561e-015 9.74045e-015
rhumerus -17.2682 -10.9948 -84.3639
rradius 26.9135
rwrist 31.8711
rhand -22.8583 -22.9097
rfingers 7.12502
rthumb 3.5799 -52.8594
lclavicle 8.89561e-015 9.74045e-015
lhumerus -3.05132 -12.8593 92.7265
lradius 28.32
lwrist 20.2054
lhand -26.9001 -11.0545
lfingers 7.12502
lthumb -0.323595 18.925
rfemur -26.4271 -5.4931 19.6498
rtibia 22.3698
rfoot 17.1753 -4.83171
rtoes 9.92706
lfemur -25.604 6.17996 -14.5134
ltibia 19.0152
lfoot 19.8868 -2.22566
ltoes -8.52213
397
root -0.15984 19.5281 -2.78391 2.31298 2.70917 -2.40273
lowerback 3.41247 -0.723744 -0.512761
upperback 3.15411 -0.989747 1.95851
thorax 1.36778 -0.525705 2.31892
lowerneck -8.60714 0.188775 -1.11916
upperneck 31.8074 0.130447 1.2299
head 11.8014 0.0780105 0.672458
rclavicle -9.93923e-016 7.15625e-015
rhumerus -18.0308 -11.4346 -84.0582
rradius 26.4606
rwrist 32.241
rhand -22.8138 -23.0241
rfingers 7.12502
rthumb 3.62289 -52.9731
lclavicle -9.93923e-016 7.15625e-015
lhumerus -3.53631 -12.3945 92.7448
lradius 28.0266
lwrist 19.9853
lhand -26.6167 -10.8234
lfingers 7.12502
lthumb -0.0498478 19.1563
rfemur -26.1344 -5.56689 19.6271
rtibia 22.632
rfoot 17.3838 -4.81197
rtoes 9.89731
lfemur -24.9961 6.16647 -14.4382
ltibia 18.6823
lfoot 20.2582 -2.04565
ltoes -9.34318
398
root -0.160547 19.2721 -2.58125 1.74358 2.57568 -2.38977
lowerback 3.16995 -0.71451 -0.502447
upperback 3.15981 -0.978435 1.90412
thorax 1.50746 -0.520275 2.25338
lowerneck -8.62012 0.192078 -1.11946
upperneck 32.1676 0.120495 1.26979
head 11.9496 0.0773936 0.689078
rclavicle 1.08089e-014 4.37326e-015
rhumerus -18.7306 -11.9181 -83.7491
rradius 25.9505
rwrist 32.7429
rhand -22.7257 -23.204
rfingers 7.12502
rthumb 3.70804 -53.1515
lclavicle 1.08089e-014 4.37326e-015
lhumerus -4.00036 -11.8693 92.7287
lradius 27.7041
lwrist 19.6544
lhand -26.3011 -10.5473
lfingers 7.12502
lthumb 0.254936 19.4323
rfemur -25.7885 -5.63581 19.5919
rtibia 23.1835
rfoot 17.5716 -4.71026
rtoes 9.85033
lfemur -24.3922 6.2098 -14.4066
ltibia 18.6513
lfoot 20.6393 -1.88383
ltoes -9.89867
399
root -0.161694 19.0012 -2.3777 1.12166 2.44323 -2.36419
lowerback 2.94911 -0.710742 -0.504196
upperback 3.16489 -0.974332 1.84607
thorax 1.63495 -0.518512 2.19139
lowerneck -8.64573 0.202738 -1.12066
upperneck 32.5157 0.122652 1.3053
head 12.0966 0.0815829 0.705837
rclavicle -2.05494e-014 -1.09332e-014
rhumerus -19.3766 -12.4229 -83.4376
rradius 25.41
rwrist 33.3178
rhand -22.6025 -23.4244
rfingers 7.12502
rthumb 3.82692 -53.3698
lclavicle -2.05494e-014 -1.09332e-014
lhumerus -4.4485 -11.2814 92.6799
lradius 27.3544
lwrist 19.1917
lhand -25.9987 -10.2692
lfingers 7.12502
lthumb 0.546962 19.7098
rfemur -25.4089 -5.67241 19.5377
rtibia 24.0546
rfoot 17.6237 -4.41955
rtoes 9.98417
lfemur -23.8385 6.29711 -14.4131
ltibia 19.0049
lfoot 20.9282 -1.79987
ltoes -10.0766
400
root -0.163349 18.7126 -2.17374 0.455121 2.31266 -2.32779
lowerback 2.76002 -0.709159 -0.515852
upperback 3.16116 -0.9728 1.78418
thorax 1.73587 -0.517927 2.13162
lowerneck -8.68361 0.217446 -1.12657
upperneck 32.8452 0.130273 1.3455
head 12.2397 0.0882646 0.725977
rclavicle 1.98785e-014 -2.14687e-014
rhumerus -19.9764 -12.9759 -83.1182
rradius 24.8466
rwrist 33.9513
rhand -22.4767 -23.6417
rfingers 7.12502
rthumb 3.94844 -53.5848
lclavicle 1.98785e-014 -2.14687e-014
lhumerus -4.87973 -10.6524 92.6019
lradius 26.9688
lwrist 18.6282
lhand -25.7425 -9.98685
lfingers 7.12502
lthumb 0.794409 19.9914
rfemur -25.017 -5.70442 19.4842
rtibia 25.2959
rfoot 16.9454 -3.31144
rtoes 9.80358
lfemur -23.3654 6.49564 -14.4771
ltibia 19.8411
lfoot 20.4565 -1.90502
ltoes -9.68531
401
root -0.165559 18.4089 -1.97213 -0.244507 2.1921 -2.27706
lowerback 2.61605 -0.711284 -0.544033
upperback 3.14253 -0.975833 1.72073
thorax 1.79669 -0.519582 2.08032
lowerneck -8.71919 0.235796 -1.13259
upperneck 33.1374 0.143677 1.38445
head 12.3679 0.0974162 0.746269
rclavicle 5.39203e-015 -4.27387e-015
rhumerus -20.5383 -13.5636 -82.7891
rradius 24.2872
rwrist 34.6007
rhand -22.366 -23.8271
rfingers 7.12502
rthumb 4.05535 -53.7683
lclavicle 5.39203e-015 -4.27387e-015
lhumerus -5.28388 -9.99835 92.5005
lradius 26.5369
lwrist 18.0172
lhand -25.5756 -9.77074
lfingers 7.12502
lthumb 0.955634 20.2069
rfemur -24.649 -5.76768 19.4322
rtibia 26.9553
rfoot 15.1473 -1.55657
rtoes 9.53548
lfemur -23.0177 6.85285 -14.6173
ltibia 21.2391
lfoot 18.6901 -2.52318
ltoes -9.2331
402
root -0.168671 18.0953 -1.77691 -0.97493 2.08949 -2.21268
lowerback 2.54983 -0.715284 -0.594708
upperback 3.10553 -0.981013 1.66069
thorax 1.79563 -0.522305 2.04638
lowerneck -8.75277 0.253774 -1.15185
upperneck 33.3959 0.156921 1.43184
head 12.4825 0.106013 0.772
rclavicle 6.72141e-015 -5.26779e-015
rhumerus -21.0626 -14.193 -82.4448
rradius 23.7496
rwrist 35.2456
rhand -22.2919 -23.9655
rfingers 7.12502
rthumb 4.12687 -53.9053
lclavicle 6.72141e-015 -5.26779e-015
lhumerus -5.65174 -9.32504 92.3919
lradius 26.0509
lwrist 17.4018
lhand -25.5187 -9.64753
lfingers 7.12502
lthumb 1.01055 20.3298
rfemur -24.3221 -5.85748 19.3785
rtibia 29.0694
rfoot 11.9772 0.684801
rtoes 8.7784
lfemur -22.7833 7.31718 -14.8013
ltibia 23.2546
lfoot 15.3579 -3.41966
ltoes -8.89996
